<?xml version="1.0" encoding="UTF-8"?>
<!DOCTYPE svg PUBLIC "-//W3C//DTD SVG 1.1//EN" "http://www.w3.org/Graphics/SVG/1.1/DTD/svg11.dtd">
<!-- Creator: CorelDRAW X7 -->
<svg xmlns="http://www.w3.org/2000/svg" xml:space="preserve" width="3000px" height="3000px" version="1.1" style="shape-rendering:geometricPrecision; text-rendering:geometricPrecision; image-rendering:optimizeQuality; fill-rule:evenodd; clip-rule:evenodd"
viewBox="0 0 3000 3000"
 xmlns:xlink="http://www.w3.org/1999/xlink">
 <defs>
  <style type="text/css">
   <![CDATA[
    .fil2 {fill:none}
    .fil1 {fill:#009B4C}
    .fil0 {fill:black}
   ]]>
  </style>
 </defs>
 <g id="Layer_x0020_1">
  <metadata id="CorelCorpID_0Corel-Layer"/>
  <g id="_1380662653792">
   <path class="fil0" d="M764 2168l-129 0 0 54c-44,-34 -99,-54 -158,-54 -141,0 -255,114 -255,254 0,141 114,255 255,255 59,0 114,-21 158,-55l0 28c0,165 -219,161 -286,62l-89 86c59,65 137,101 238,102l29 0c130,0 237,-107 237,-238l0 -257 0 -237zm1499 -128l130 0 0 333 209 -202 174 0 -216 209 1 0 217 291 -153 0 -153 -205 -77 74 -2 -1 0 132 -130 0 0 -631zm-337 128c146,0 264,113 264,253 0,15 -1,30 -4,44l-5 0 -112 0 -271 0c12,41 41,75 78,92l1 0c57,29 161,20 200,-44l85 65c-69,69 -115,96 -236,96 -122,0 -265,-113 -265,-253 0,-140 119,-253 265,-253zm142 205c-19,-58 -72,-100 -135,-100 -62,0 -115,42 -134,100l269 0zm-477 -205l-130 0 0 54 0 187 0 26 0 284c-2,83 -61,57 -126,62l0 119 19 0c135,0 237,-9 237,-139l0 -356 0 -237zm-481 0c150,0 271,113 271,253 0,140 -121,253 -271,253 -150,0 -271,-113 -271,-253 0,-140 121,-253 271,-253zm0 113c76,0 138,63 138,140 0,77 -62,140 -138,140 -76,0 -138,-63 -138,-140 0,-77 62,-140 138,-140zm-475 128l0 26c-7,71 -67,126 -139,126 -77,0 -139,-62 -139,-139 0,-77 62,-139 139,-139 72,0 132,55 139,126z"/>
   <path class="fil1" d="M1500 100c475,0 860,385 860,860 0,365 -228,678 -550,802 3,-1 5,-2 7,-2 -16,5 -33,8 -50,8 -89,0 -161,-72 -161,-161 0,-65 38,-121 93,-147 4,-1 8,-3 12,-5 1,0 2,0 3,-1l0 0c191,-82 324,-273 324,-494 0,-297 -241,-538 -538,-538 -297,0 -538,241 -538,538 0,221 133,412 324,494l0 0 0 0c1,1 2,1 2,1l0 0c5,2 9,4 13,5 55,26 93,82 93,147 0,89 -72,161 -161,161 -17,0 -34,-3 -50,-8 2,1 4,1 7,2 -322,-124 -550,-436 -550,-802 0,-475 385,-860 860,-860zm0 540c177,0 321,144 321,321 0,177 -144,320 -321,320 -177,0 -320,-143 -320,-320 0,-177 143,-321 320,-321z"/>
  </g>
  <polygon class="fil2" points="0,0 3000,0 3000,3000 0,3000 "/>
 </g>
</svg>
