<?xml version="1.0" encoding="UTF-8"?>
<!DOCTYPE svg PUBLIC "-//W3C//DTD SVG 1.1//EN" "http://www.w3.org/Graphics/SVG/1.1/DTD/svg11.dtd">
<!-- Creator: CorelDRAW 2020 (64-Bit) -->
<svg xmlns="http://www.w3.org/2000/svg" xml:space="preserve" width="200mm" height="200mm" version="1.1" style="shape-rendering:geometricPrecision; text-rendering:geometricPrecision; image-rendering:optimizeQuality; fill-rule:evenodd; clip-rule:evenodd"
viewBox="0 0 20000 20000"
 xmlns:xlink="http://www.w3.org/1999/xlink"
 xmlns:xodm="http://www.corel.com/coreldraw/odm/2003">
 <defs>
  <style type="text/css">
   <![CDATA[
    .fil7 {fill:#FEFEFE}
    .fil5 {fill:#FCD066}
    .fil4 {fill:#FDF8B4}
    .fil6 {fill:#EEEFEE}
    .fil2 {fill:#89C45F}
    .fil1 {fill:#5FB74E}
    .fil0 {fill:#4D4C4B}
    .fil8 {fill:#3CAF41}
    .fil3 {fill:#4A9E4B}
   ]]>
  </style>
 </defs>
 <g id="Layer_x0020_1">
  <metadata id="CorelCorpID_0Corel-Layer"/>
  <g id="_1500999331408">
   <path class="fil0" d="M10001.53 5431.34c370.74,-185.29 820.47,-286.34 1231.99,-321.98l462.5 -40.25c506.55,-43.59 1013.49,-16.86 1520.63,-16.86l278.17 -0.01 0 278.08c0,1234.84 0,2470.01 0,3705.06l0 141.93c0,1274.89 -1042.51,2317.39 -2317.83,2317.39l-4671.8 0 0 -6442.46 277.96 0c507.76,0 1012.78,-33.31 1520.42,6.02l462.41 34.99c439.21,33 841.36,139.55 1235.55,338.09z"/>
   <path class="fil1" d="M6783.15 5330.32l0 3173.86 0 531.19 0 141.94 0 2039.49 2039.15 0 320.5 0 2034.19 0c1121.92,0 2039.66,-917.99 2039.66,-2039.49l0 -141.94c0,-1227.88 0,-2425.61 0,-3705.05 -487.43,0 -1002.23,-11.93 -1496.55,15.99l-462.61 39.89c-452.67,55.06 -910.6,160.69 -1257.58,360.92 -374.56,-216.42 -783.11,-324.01 -1254.93,-376.9l-462.47 -35.09c-504.35,-23.52 -1021.44,-4.81 -1499.36,-4.81z"/>
   <path class="fil2" d="M7359.95 11216.8l1462.35 0 320.5 0 2034.19 0c497.06,0 953.71,-180.26 1308.26,-478.14 -414.18,-962.57 -1371.24,-1636.26 -2485.46,-1636.26 -1291.07,-0.01 -2370.56,904.37 -2639.84,2114.4z"/>
   <path class="fil3" d="M9999.91 11216.8l1200.87 -17.76c490.4,0 936.88,-172.94 1284.56,-460.23 447.71,-369.98 731.31,-930.25 731.31,-1561.5l0 -141.94c0,-1227.88 0,-2425.61 0,-3705.05 -487.43,0 -1002.23,-11.93 -1496.55,15.99l-462.61 39.89c-452.67,55.06 -910.6,160.69 -1257.58,360.92l0 5469.68z"/>
   <path class="fil1" d="M9999.91 11216.8l1184.56 0c497.05,0 946.32,-180.11 1300.87,-477.99 -409.57,-951.77 -1387.14,-1621.19 -2485.43,-1635.91l0 2113.9z"/>
   <path class="fil0" d="M11720.11 5153.65c-88.39,-868.24 -822.11,-1544.72 -1712.89,-1544.72 -890.44,0 -1623.78,670.68 -1724.71,1533.9l462.47 35.25c81.72,-623.42 613.12,-1105.45 1260.45,-1105.45 647.06,0 1183.06,490.22 1252.05,1120.85l462.63 -39.83z"/>
   <path class="fil0" d="M10752.19 9373.84c-201.52,213.08 -402.81,426.31 -604.24,639.74l-148.15 157.04 -147.99 -157.04c-201.46,-213.06 -402.78,-426.66 -604.18,-639.73l-104.33 -110.76 76.18 -131.51c161.62,-278.63 463.84,-428.53 780.31,-428.53 316.81,0 618.75,149.9 780.44,428.54l76.33 131.5 -104.37 110.75z"/>
   <path class="fil4" d="M10603.83 9234.04c-201.02,213.28 -402.75,426.3 -604.04,639.7 -201.28,-213.4 -402.74,-426.41 -604.15,-639.7 127.22,-219.29 365.99,-327.65 604.15,-327.26 238.22,-0.39 476.96,107.98 604.04,327.26z"/>
   <path class="fil5" d="M10603.83 9234.04c-201.02,213.28 -402.75,426.3 -604.04,639.7l0.01 -966.96c238.21,-0.39 476.95,107.98 604.03,327.26z"/>
   <path class="fil0" d="M8490.25 6132.61c902.41,0 1634.26,732.31 1634.26,1634.27 0.01,902.38 -731.86,1634.34 -1634.26,1634.34 -902.49,0 -1634.01,-731.96 -1634.01,-1634.34 0,-901.96 731.52,-1634.26 1634.01,-1634.27z"/>
   <path class="fil6" d="M8490.25 6410.66c748.99,0 1356.34,607.44 1356.34,1356.22 0,748.86 -607.35,1356.26 -1356.34,1356.26 -749.2,-0.01 -1356.22,-607.4 -1356.22,-1356.26 0,-748.78 607.02,-1356.21 1356.22,-1356.22z"/>
   <path class="fil7" d="M8490.25 6410.66c618.11,0 1139.77,413.84 1303.18,979.35 -163.41,565.34 -685.07,979.15 -1303.18,979.15 -618.35,-0.01 -1139.48,-413.81 -1302.86,-979.15 163.38,-565.51 684.51,-979.34 1302.86,-979.35z"/>
   <path class="fil0" d="M11509.43 6132.61c902.61,0 1634.11,732.31 1634.11,1634.27 0.01,902.38 -731.5,1634.34 -1634.12,1634.34 -902.42,0 -1634.32,-731.6 -1634.32,-1634.34 0,-901.96 731.89,-1634.26 1634.33,-1634.27z"/>
   <path class="fil6" d="M11509.43 6410.66c748.97,0 1356.33,607.44 1356.33,1356.22 0.01,748.86 -607.37,1356.26 -1356.34,1356.26 -748.93,-0.01 -1356.13,-607.4 -1356.13,-1356.26 0,-748.78 607.2,-1356.21 1356.14,-1356.22z"/>
   <path class="fil7" d="M11509.43 6410.66c617.99,0 1139.73,413.84 1302.86,979.35 -163.12,565.34 -684.87,979.15 -1302.87,979.15 -618.28,-0.01 -1139.77,-413.81 -1303.21,-979.15 163.44,-565.51 684.93,-979.34 1303.22,-979.35z"/>
   <path class="fil0" d="M8660.71 6923.49c483.7,0 876.09,392.16 876.09,875.37 0,484 -392.39,876.12 -876.09,876.12 -484,0 -876.04,-392.12 -876.04,-876.12 0,-161.21 43.88,-312.22 120,-442.08 62.56,154.65 213.84,263.18 391.19,263.18 232.87,-0.01 421.99,-188.44 421.99,-421.49 0,-104.87 -38.29,-200.58 -101.26,-274.06 14.55,-0.92 29.47,-0.91 44.12,-0.92z"/>
   <path class="fil0" d="M11338.68 6923.49c484.14,0 876.3,392.16 876.3,875.37 0,484 -392.16,876.12 -876.31,876.12 -483.52,0 -875.65,-392.12 -875.65,-876.12 0,-161.21 43.62,-312.22 119.6,-442.08 62.82,154.65 214.39,263.18 391.54,263.18 232.93,-0.01 421.75,-188.44 421.75,-421.49 0,-104.87 -37.88,-200.58 -101.09,-274.06 14.76,-0.92 29.22,-0.91 43.86,-0.92z"/>
   <path class="fil8" d="M10623.12 15241.27c-195.55,198.4 -429.57,298.36 -700.74,298.36 -219.26,-0.02 -405.72,-44.84 -595.96,-155.33l0.01 -455.04c153.07,103.72 345.2,202.58 534.95,202.58 395.49,-0.01 631.09,-272.23 631.09,-658.06 0.01,-386.22 -243.73,-666.57 -639.3,-666.57 -176.93,0 -320.04,63.54 -432.03,190.84 -120.01,138.08 -181.97,335.29 -181.97,596.01l0 1797 -29.82 0c-217.95,0 -394.75,-176.75 -394.75,-394.69l0 -1469.67c0,-623.63 381.35,-1127.15 1036.68,-1127.15 323.39,0 586.21,110.58 785.45,332.82 187.34,207.59 280.25,470.9 280.25,787.47 0.01,281.85 -97.88,522.76 -293.86,721.43zm-9001.94 256.37c-415.05,0 -621.18,-282.46 -621.18,-676.8l0 -1496.38c0,-217.99 176.69,-394.7 394.78,-394.7l29.73 0 0 511.69 717.25 0 0 407.79 -717.25 0 0 1018.75c0,173.29 77.39,222 242.84,222l474.41 -0.01 0 407.66 -520.58 0zm2465.58 -259.98c-209.91,201.17 -461.93,301.97 -754.75,301.97 -290.08,-0.02 -540.84,-100.88 -750.42,-301.96 -210.47,-201.79 -315.46,-458.6 -315.46,-768.11 0,-603.85 461.26,-1070.01 1065.88,-1070.01 290.23,0 541.51,101.63 752.56,303.98 211.79,203.09 317.5,459.16 317.5,766.03 0,309.51 -105,566.32 -315.31,768.1zm1984.62 -1301.47c-62.28,104.42 -110.49,179.39 -144.49,224.61 -37.49,49.15 -74.43,88.49 -111.01,115.59 295.02,95.42 404.89,299.8 404.89,604.3l0.01 616.95 -29.88 0c-218.03,0 -394.78,-176.71 -394.78,-394.71l0 -180.44c0,-197.04 -88.27,-330.94 -297.26,-330.94l-385.56 0 0 906.09 -29.73 0c-218.03,0 -394.79,-176.71 -394.79,-394.71l0 -2189.5c0,-217.96 176.76,-394.75 394.79,-394.75l29.73 -0.01 0 1660.93 125.46 0c137.85,0 228.57,-47.03 280.48,-136.26l356.68 -601.8 483.75 -0.45 -288.29 495.1zm2191.45 1301.47c-209.74,201.17 -461.85,301.97 -754.72,301.97 -290,-0.02 -540.67,-100.88 -750.5,-301.96 -210.33,-201.79 -315.21,-458.6 -315.21,-768.11 0,-603.85 461.06,-1070.01 1065.71,-1070.01 290.33,0 541.64,101.63 752.65,303.98 211.7,203.09 317.5,459.16 317.5,766.03 0,309.51 -105,566.32 -315.43,768.1zm-306.39 -1246.54c-116.99,-122.53 -265.78,-183.91 -448.33,-183.91 -390.66,0 -624.5,284.86 -624.5,662.35 0,372.26 239.47,662.28 624.5,662.28 385.36,-0.01 624.46,-290.02 624.46,-662.28 0,-197.66 -59.24,-356.22 -176.13,-478.44zm-4176.24 0c-116.98,-122.53 -265.59,-183.91 -448.19,-183.91 -390.72,0 -624.48,284.86 -624.48,662.35 0,372.26 239.41,662.28 624.48,662.28 385.17,-0.01 624.6,-290.02 624.6,-662.28 0,-197.66 -59.33,-356.22 -176.41,-478.44zm11439.45 1235.04c-194.88,209.11 -445.6,313.47 -749.8,313.47 -320.73,-0.02 -582.33,-110.77 -781.31,-332.97 -187.16,-210.17 -280.26,-473.57 -280.26,-787.46 0,-555.52 428.95,-1019.65 992.94,-1019.65 217.78,0 406.74,45.76 597.72,150.58l0 459.65c-153.21,-103.72 -345.39,-202.57 -534.96,-202.57 -395.49,0 -631.09,272.18 -631.09,658.1 0.01,380.94 249.21,666.53 639.17,666.53 176.54,-0.01 322.06,-66.31 438.4,-199.51 115.54,-132.53 175.65,-327.12 175.65,-588.62l0 -1430.28c0,-217.96 176.7,-394.75 394.87,-394.75l29.65 -0.01 0 1892.09c0,333.31 -96.35,606.02 -290.98,815.4zm1198.77 -2028.66c-44.62,49.88 -108.48,72.9 -186.51,72.9 -145.61,0 -249.82,-107.59 -249.82,-252.06 0,-148.05 102.36,-247.94 249.82,-247.94 142.15,0 250.09,105.3 250.09,247.94 0.01,70.52 -20.59,130.95 -63.58,179.16zm2156.98 1146.2c0,-167.3 -63.29,-299.75 -190.68,-400.23 -114.57,-90.29 -257.86,-136.26 -431.76,-136.26 -384.21,0 -630.79,300.32 -630.79,670.61 0,356.62 261.24,654.02 626.88,654.02 254,-0.01 390.03,-148.57 535,-333.4l0 533.29c-73.95,55.28 -158.88,115.58 -245.66,150.98 -91.47,38.24 -200.55,56.92 -326.81,56.92 -611.02,-0.02 -1014.01,-506.17 -1014.01,-1091.05 0,-300.34 93.27,-548.54 281.04,-742.2 199.38,-205.08 460.62,-306.83 780.62,-306.83 606.73,0 1040.76,348.28 1040.76,977.66l0.01 1120.43 -29.86 0c-217.99,0 -394.75,-176.71 -394.75,-394.71l0.01 -759.23zm-5811.33 -120.15c-53.79,-165.99 -120.95,-247.58 -275.79,-333.92 -367.73,-205.64 -729.77,-30.7 -898.27,332.27l1174.06 1.65zm-323.91 1309.79c-271.22,57.52 -537.3,13.17 -796.83,-131.79 -253.16,-141.53 -422.94,-351.92 -507.82,-629.69 -171.8,-562 180.26,-1188.3 746.31,-1340.07 280.62,-75.14 549.81,-41.07 805.43,101.88 424.7,237.27 579.41,604.44 552.45,1077.56l-1710.37 -3.56c25.12,193 144.82,344.03 312.88,437.92 170.44,95.29 327.25,118.04 472.78,72.89 161.35,-50.72 292.29,-182.41 398.87,-305.11l348.65 253.95c-142.28,254.39 -335.91,404.97 -622.35,466.02zm3579.61 -2091.89l424.43 0 0 2056.19 -29.73 0c-217.87,0 -394.7,-176.71 -394.7,-394.71l0 -1661.48z"/>
  </g>
 </g>
</svg>
