<?xml version="1.0" encoding="UTF-8"?>
<!DOCTYPE svg PUBLIC "-//W3C//DTD SVG 1.1//EN" "http://www.w3.org/Graphics/SVG/1.1/DTD/svg11.dtd">
<!-- Creator: CorelDRAW X7 -->
<svg xmlns="http://www.w3.org/2000/svg" xml:space="preserve" width="3000px" height="3000px" version="1.1" style="shape-rendering:geometricPrecision; text-rendering:geometricPrecision; image-rendering:optimizeQuality; fill-rule:evenodd; clip-rule:evenodd"
viewBox="0 0 3000 3000"
 xmlns:xlink="http://www.w3.org/1999/xlink">
 <defs>
  <style type="text/css">
   <![CDATA[
    .fil0 {fill:none}
    .fil1 {fill:#0A7EA6}
    .fil3 {fill:#189EC2}
    .fil2 {fill:#1BA0E2}
    .fil4 {fill:#434343;fill-rule:nonzero}
   ]]>
  </style>
 </defs>
 <g id="Layer_x0020_1">
  <metadata id="CorelCorpID_0Corel-Layer"/>
  <polygon class="fil0" points="0,0 3000,0 3000,3000 0,3000 "/>
  <g id="_2236657781840">
   <path class="fil1" d="M2670 1333c4,43 2,90 14,130 12,40 42,60 61,81 -7,-9 -12,-18 -16,-34 -1,0 -1,-1 -1,-2 -1,-2 -1,-4 -2,-6 -4,-14 5,-37 3,-46 -5,-49 -14,-90 -17,-144 -14,6 -28,13 -42,21z"/>
   <path class="fil2" d="M2700 1456c-12,-40 -26,-80 -30,-123 0,-3 0,-5 0,-8 -1,-45 3,-88 5,-131 -52,14 -93,40 -115,80 -14,27 -3,66 11,107 7,24 3,42 -4,54 -7,12 -21,11 -28,7 -17,-11 -40,-19 -56,-10 -9,3 -18,9 -27,8l-102 -15c100,23 129,27 157,60 13,15 20,28 40,41 16,9 44,17 72,21 72,13 137,32 201,67 -5,-12 -9,-11 12,-6 -34,-18 -59,-33 -79,-52 -5,-4 -9,-8 -12,-12 -19,-21 -33,-48 -45,-88z"/>
   <path class="fil3" d="M2712 1312c-2,55 2,104 7,153 1,9 3,23 7,37 1,2 1,4 2,6 -3,-10 -1,-20 5,-30 41,-76 101,-149 167,-219 -63,8 -126,24 -188,53z"/>
   <path class="fil4" d="M276 1800c-11,3 -30,4 -52,-1 -51,-10 -85,-41 -85,-115l0 -135 -39 0 0 -48 41 0 0 -88 57 0 0 88 72 0 0 48 -72 0 0 135c0,39 20,58 47,65 7,2 24,2 31,-1l0 52zm1946 -1l-113 -168 103 -135 -68 0 -60 82c-11,14 -29,30 -44,30l-21 0 0 -231 -58 0 0 422 58 0 0 -142 26 0c15,0 24,11 33,25l76 117 68 0zm-671 -51c-24,6 -43,-1 -43,-43l0 -328 -59 0 0 332c0,54 16,82 54,90 13,3 29,4 48,2l0 -53zm85 -100c1,-56 42,-107 105,-107 62,0 104,51 104,107 0,56 -42,106 -104,107 -63,-1 -104,-51 -105,-107zm268 0c0,-91 -72,-158 -163,-158 -92,0 -164,67 -164,158 0,91 72,158 164,158 91,0 163,-67 163,-158zm-651 106c-51,-13 -81,-49 -80,-98l80 0 140 0c1,-3 1,-5 1,-8 0,-5 0,-10 0,-15 0,-98 -61,-143 -132,-143l-9 0c-61,0 -141,52 -141,158 0,107 85,156 141,158 1,0 2,0 3,0l20 0c50,0 84,-18 114,-43l-24 -42c-35,29 -72,40 -113,33zm0 -141l-78 0c5,-31 20,-54 49,-69 8,-4 19,-7 29,-7 13,-1 26,0 36,3 26,12 43,29 47,73l-83 0zm1239 186l-54 0 0 -39c-25,36 -55,46 -99,46 -29,0 -54,-9 -72,-24 -19,-16 -28,-39 -28,-65 0,-18 3,-34 10,-48 15,-26 47,-43 93,-52 26,-5 56,-6 91,-6 0,-35 -6,-47 -20,-58 -10,-9 -23,-14 -40,-14 -40,0 -66,13 -90,30l-25 -44c32,-20 62,-35 120,-35 63,0 114,37 114,112l0 197zm-59 -145l-27 0c-42,0 -75,10 -91,21 -12,9 -17,21 -17,36 0,18 4,26 15,35 11,9 22,14 41,14 22,0 39,-9 55,-27 15,-18 24,-44 24,-55l0 -24zm-1663 145l-54 0 0 -39c-25,36 -55,46 -98,46 -30,0 -55,-9 -73,-24 -18,-16 -28,-39 -28,-65 0,-18 4,-34 11,-48 14,-26 46,-43 93,-52 25,-5 55,-6 90,-6 0,-35 -5,-47 -19,-58 -10,-9 -24,-14 -40,-14 -41,0 -66,13 -90,30l-25 -44c31,-20 61,-35 119,-35 63,0 114,37 114,112l0 197zm-59 -145l-27 0c-42,0 -74,10 -90,21 -12,9 -18,21 -18,36 1,18 4,26 15,35 12,9 22,14 41,14 22,0 39,-9 55,-27 16,-18 24,-44 24,-55l0 -24zm238 89c-3,-17 -7,-35 -15,-56l-69 -191 -62 0 113 303 33 0 33 0 114 -303 -62 0 -69 191c-8,21 -13,39 -16,56zm-453 -190c-21,-7 -52,-2 -78,27 -20,23 -31,55 -31,84l0 135 -59 0 0 -303 57 0 0 77c7,-23 19,-42 36,-57 19,-17 48,-27 75,-22l0 59z"/>
  </g>
 </g>
</svg>
